<?xml version="1.0" encoding="utf-8"?>
<!DOCTYPE svg PUBLIC "-//W3C//DTD SVG 1.1//EN" "http://www.w3.org/Graphics/SVG/1.1/DTD/svg11.dtd">
<svg version="1.1" xmlns="http://www.w3.org/2000/svg" xmlns:xlink="http://www.w3.org/1999/xlink" x="0px" y="0px" viewBox="0 0 1000 1000" enable-background="new 0 0 1000 1000" xml:space="preserve">
<g><path d="M500,96.4c222.5,0,403.6,181,403.6,403.6c0,222.5-181,403.6-403.6,403.6c-222.5,0-403.6-181-403.6-403.6C96.4,277.5,277.5,96.4,500,96.4 M500,10C229.4,10,10,229.4,10,500c0,270.6,219.4,490,490,490c270.6,0,490-219.4,490-490C990,229.4,770.6,10,500,10L500,10z M730.5,456.8H177.3v-73.5h495.5h57.6V456.8z M822.7,456.8H687.3V321.4L822.7,456.8z M269.5,543.2h553.2v73.5H327.1h-57.6V543.2z M177.3,543.2h135.4v135.4L177.3,543.2z"/></g>
</svg>