<?xml version="1.0" encoding="utf-8"?>
<!-- Generator: Adobe Illustrator 25.0.0, SVG Export Plug-In . SVG Version: 6.00 Build 0)  -->
<svg version="1.1" id="Layer_1" xmlns="http://www.w3.org/2000/svg" xmlns:xlink="http://www.w3.org/1999/xlink" x="0px" y="0px"
	 viewBox="0 0 363.6 500" enable-background="new 0 0 363.6 500" xml:space="preserve">
<g>
	<path fill="#56368A" d="M238.6,125l68.5,13l56.5-13L238.6,0l-17.2,59.3L238.6,125z"/>
	<path fill="#7248B9" d="M238.6,125V0H34.1C15.3,0,0,15.3,0,34.1v431.8C0,484.7,15.3,500,34.1,500h295.5c18.8,0,34.1-15.3,34.1-34.1
		V125H238.6z"/>
	<path fill="#FFFFFF" d="M96.6,360.8c-9.4,0-17-7.6-17-17s7.6-17,17-17c9.4,0,17,7.6,17,17S106,360.8,96.6,360.8z M96.6,292.6
		c-9.4,0-17-7.6-17-17c0-9.4,7.6-17,17-17c9.4,0,17,7.6,17,17C113.6,285,106,292.6,96.6,292.6z M96.6,224.4c-9.4,0-17-7.6-17-17
		c0-9.4,7.6-17,17-17c9.4,0,17,7.6,17,17C113.6,216.8,106,224.4,96.6,224.4z M284.1,358H142v-28.4h142V358z M284.1,289.8H142v-28.4
		h142V289.8z M284.1,221.6H142v-28.4h142V221.6z"/>
</g>
</svg>
